<svg xmlns="http://www.w3.org/2000/svg"><defs><font id="iconfont" horiz-adv-x="1024"><font-face font-family="iconfont" font-weight="500" units-per-em="1024" panose-1="2 0 6 3 0 0 0 0 0 0" ascent="896" descent="-128" x-height="792" bbox="-16 -148.61 1143 896" underline-thickness="0" underline-position="0" unicode-range="U+0078-E752"/><glyph glyph-name=".notdef"/><glyph glyph-name=".notdef"/><glyph glyph-name=".null" horiz-adv-x="0"/><glyph glyph-name="nonmarkingreturn" horiz-adv-x="341"/><glyph glyph-name="x" unicode="x" horiz-adv-x="1001" d="M281 543q-27-1-53-1h-83q-18 0-36.5-6T76 517.5t-23-32-9-45.5v-76h912v41q0 16-.5 30t-.5 18q0 13-5 29t-17 29.5-31.5 22.5-49.5 9H719v-97H281v97zm674-233v-52q0-23 .5-52t.5-58-10.5-47.5-26-30-33-16T855 50q-14-1-29.5-.5T796 50h-32l-45 128H280L236 50h-63q-20 0-45 1-25 0-41 9.5t-25.5 23T48 113t-4 30v167h911zm-792-63q-12 0-21-8.5t-9-21.5 9-21.5 21-8.5q13 0 22 8.5t9 21.5-9 21.5-22 8.5zm153-124q-8-26-14-48-5-19-10.5-37T284 13t-3-15 1-14.5 9.5-10.5 21.5-4h365q23 0 34 12t2 38q-5 13-9.5 30.5T695 84q-5 19-11 39H316zm20 375v228q0 11 2.5 23t10 21.5T369 786t34 6h188q31 0 51.5-14.5T663 725V498H336z"/><glyph glyph-name="jiahao" unicode="㑦" horiz-adv-x="1000" d="M746 346H545v201q0 13-8.5 21.5t-21 8.5-21.5-8.5-9-21.5V346H284q-12 0-21-8.5t-9-21 9-21.5 21-9h201V85q0-12 9-20.5t21.5-8.5 21 8.5T545 85v201h201q12 0 21 9t9 21.5-9 21-21 8.5z"/><glyph glyph-name="15tianwuliyoutuihuo" unicode="" d="M189 617q105 105 252 126 89 13 175-9t157.5-75.5 117-130T948 364q18-121-27-231.5T782.5-52 569-144q-159-22-296 61-12 7-15 20t4 24 20 14 24-3q117-72 254-52Q663-65 743-1.5t118.5 158T885 355q-11 76-49.5 141t-100 111-135 65-150.5 8q-103-15-183-78.5T148.5 443 125 245q12-83 57-152 7-11 4-24t-14-20-24-4.5T128 58q-53 82-67 178-12 89 10 175t75 157q20 27 43 49zm272-195zM333 114v342h-54q-20 0-20 22 0 18 20 20h89q16 0 16-13V114q-2-22-26.5-22T333 114zm236 342l-15-112q22 11 53 14 94-12 105-125-7-139-134-141-94 2-114 65 0 18 18 20 7 0 25-16 35-27 73-27 72 5 78 90-4 82-71 87-24 0-54-11-11-5-15-5-18 0-18 16 0 7 4 33l23 141q-2 13 18 13h140q20-2 23-20-3-22-23-22H569z"/><glyph glyph-name="jia" unicode="" d="M95 336h833v-72H95v72zm381 380h71v-832h-71v832z"/><glyph glyph-name="yiyuangou" unicode="" d="M510 747q91 0 174-35t142.5-95 95-143T957 300t-35.5-174-95-143T684-112t-174-35-174 35-143 95-95.5 143T62 300t35.5 174T193 617t143 95 174 35zm36-230h-34q-14-27-47-56.5T388 410v-50q25 9 55.5 27t49.5 36V89h53v428z"/><glyph glyph-name="yiyuanxuyuan" unicode="" d="M857 550H621q117 31 141 83 17 37-13 79-27 38-63 38-26 0-53-18.5T582 683t-40-55-30-51q-14 26-30 51t-40 55-51 48.5-53 18.5q-36 0-63-38-30-42-13-79 24-52 142-83H167q-31 0-52.5-21.5T93 476V-70q0-31 21.5-52.5T167-144h690q31 0 52.5 21.5T931-70v546q0 31-21.5 52.5T857 550zm46-74V259H568v257l156-84q3-2 7-2 8 0 12 8 7 12-6 19l-122 65h242q19 0 32.5-13.5T903 476zM484 175v56h56v-56h-56zm56-28v-263h-56v263h56zm-84 28H121v56h335v-56zm28 347h56V259h-56v263zm84-291h335v-56H568v56zm118 491q22 0 41-26 20-29 9-51-14-32-74-52.5T536 562q19 36 41 69t53 62 56 29zm-398-77q-11 22 9 51 19 26 41 26 25 0 56-29t53-62 41-69q-66 10-126 30.5T288 645zM167 522h243l-122-65q-13-7-6-19 4-8 12-8 4 0 7 2l155 83V259H121v217q0 19 13.5 32.5T167 522zM121-70v217h335v-263H167q-19 0-32.5 13.5T121-70zm736-46H568v263h335V-70q0-19-13.5-32.5T857-116zm0 0z"/><glyph glyph-name="6sim" unicode="" d="M848-120H176q-23 0-39.5 16.5T120-64v896q0 23 16.5 39.5T176 888h478q10 0 17-8l227-249q6-7 6-16V-64q0-23-16.5-39.5T848-120zM176 840q-8 0-8-8V-64q0-8 8-8h672q8 0 8 8v669L643 840H176zm304-740q0-13 9.5-22.5T512 68t22.5 9.5 9.5 23-9.5 22.5-22.5 9-22.5-9-9.5-23zm0 0zm62 278q-1 32-30 32-14 0-22-8t-8-22q0-3 12-204 1-9 5.5-15.5t9.5-6.5q9 0 14.5 6.5T529 177zm0-45zM241 660zm0 138zm0-176q-10 0-17 7t-7 17v152q0 10 7 17t17 7 17-7 7-17V646q0-10-7-17t-17-7zm80 0q-10 0-17 7t-7 17v152q0 10 7 17t17 7 17-7 7-17V646q0-10-7-17t-17-7zm80 0q-10 0-17 7t-7 17v152q0 10 7 17t17 7 17-7 7-17V646q0-10-7-17t-17-7zm80 0q-10 0-17 7t-7 17v152q0 10 7 17t17 7 17-7 7-17V646q0-10-7-17t-17-7zm80 0q-10 0-17 7t-7 17v152q0 10 7 17t17 7 17-7 7-17V646q0-10-7-17t-17-7zm80 0q-10 0-17 7t-7 17v102q0 10 7 17t17 7 17-7 7-17V646q0-10-7-17t-17-7zm80-7q-10 0-17 7t-7 17v32q0 10 7 17t17 7 17-7 7-17v-32q0-10-7-17t-17-7z"/><glyph glyph-name="yiyuanduobao" unicode="" d="M512 833q-91 0-174.5-35.5T194 702 98.5 558.5 63 384t35.5-174.5T194 66t143.5-95.5T512-65t174.5 35.5T830 66t95.5 143.5T961 384t-35.5 174.5T830 702t-143.5 95.5T512 833zM798 98q-56-56-129-86-75-32-157-32T355 12q-73 30-129 86t-86 129q-32 75-32 157t32 157q30 73 86 129t129 86q75 32 157 32t157-32q73-30 129-86t86-129q32-75 32-157t-32-157q-30-73-86-129zM512 768q-104 0-192.5-51.5t-140-140T128 384t51.5-192.5 140-140T512 0t192.5 51.5 140 140T896 384t-51.5 192.5-140 140T512 768zm167-513l7-1h80l8 1v-13l-8 1h-80l-7-1v13zm-31-122H375v31h54q29 0 29 32v371q-53-33-99-43l-14 24q100 47 169 126h48V200q-2-21 6-30 6-6 18-6h62v-31zm138 9q-2-2-4-3-3-2-9-2h-24q-10 0-13 3-2 2-4 5-1 3-1 10v48h-13v-3q0-13-3-27-2-7-5-12t-8-9q-12-12-29-17-2 0-7-2h-1l-3 9h1q8 5 14 9 13 10 17 25 3 10 3 25v2h-25l-7-1v13l7-2h109l7 2v-13l-7 1h-29v-42q0-3 1-4t5-1h16q3 0 4 1t2 4l1 15 9-1-1-22q-1-8-3-11z"/><glyph glyph-name="sousuo" unicode="" d="M953-12L801 151q96 115 96 265 0 113-56 209T689 776.5 480.5 832 272 776.5 120.5 625 65 416t55.5-208.5T272 56 481 0q90 0 172 37 12 6 16.5 18.5t-1 24.5-18 16.5T626 96q-69-32-145-32-96 0-177 47T176 239.5t-47 177T176 593t128 128 176.5 47T657 721t128.5-128T833 416q0-141-98-244-10-9-9.5-22.5T735 127q1 0 2-1t1.5-1 1-1.5 1.5-2.5L907-56q9-10 23-10 12 0 22 9t10.5 22-9.5 23z"/><glyph glyph-name="cha" unicode="" horiz-adv-x="1031" d="M-16 290l9-4zM868 89L573 384l295 295q11 11 11 27.5t-11.5 28T840 746t-27-12L518 439 223 734q-11 12-27.5 12t-28-11.5-11.5-28 12-27.5l294-295L168 89q-12-11-12-27.5t11.5-28T195 22t28 12l295 295L813 34q11-12 27-12t27.5 11.5 11.5 28T868 89z"/><glyph glyph-name="520jiashouhouwangdian24px" unicode="" d="M512-43q-2 0-32.5 30t-75 83.5T317 187t-73.5 140T213 469q0 86 23 152.5t64 107 94.5 61.5T512 811t117.5-21 94.5-61.5 64-107T811 469q0-65-30.5-142T707 187 619.5 70.5t-75-83.5T512-43zm0 811q-113 0-184.5-81T256 448q0-56 26-120.5t63-117 75-96.5 64-68.5T512 21t28 24.5 64 68.5 75 96.5 63 117T768 448q0 161-71.5 240.5T512 768zm0-384q-54 0-91 37t-37 91 37 91 91 37 91-37 37-91-37-91-91-37zm0 213q-35 0-60-25t-25-60 25-60 60-25 60 25 25 60-25 60-60 25z"/><glyph glyph-name="huafeichongzhi" unicode="" d="M146 895h442q11 0 36 .5t39.5.5 33.5-2 31.5-8 19.5-15q7-10 10-24t3.5-24.5.5-34.5V-20q0-4 1-18t.5-24-2.5-16q-9-28-33-42-6-4-16-6t-17.5-2-23.5.5-20 .5H229q-7 0-24.5-.5T178-128t-22 1-22 4-16 8q-10 7-15.5 18.5T95-67t-2.5 30 0 37.5T93 35v692q0 4-1 38.5t0 56 5 32.5q11 26 35 36 2 1 7 2t7 3zm-17-121h597v32l-.5 14.5-2 14.5-4.5 10.5-7 8.5q-7 4-38 4H184q-35 0-41-4-5-4-8.5-9.5t-4.5-16-1.5-15.5 0-20.5.5-18.5zm0-36V52h597v686H129zm317-296v-70q8 0 38.5 1.5t50.5.5 35-4q14-22 2-31-4-3-37-3h-89q0-13 .5-46t.5-57-3-44q-1-2-4.5-4.5T434 181q-10-1-18 1-5 8-7.5 29.5t-2.5 40 1 48 1 36.5q-10 0-38.5-1t-49.5-1-35 3q-9 13-9 21 1 2 3.5 5.5t4.5 5 6 2.5q3 2 9 2t14.5-.5 10.5-.5h84v70H301l-6 .5-6 1-4 1.5-3.5 3-2.5 4q-3 4-3 14 2 1 4 4.5t4 5.5 5 3h88v1q-4 3-7.5 6.5t-7.5 8-6 6.5q-7 7-20.5 20T315 540q-2 2-7.5 7t-10 9-5.5 8v16q8 7 9 8 4 3 13 3 1-1 3.5-1.5t3.5-1.5q9-9 24.5-25t23.5-24q5-4 37-36 3-3 7-6.5t7.5-7 5.5-6.5h1v1q9 9 20 19t20 19.5 19.5 18.5 19.5 19q2 2 9 10.5t13 13.5 13 5q4 1 5.5 1.5t6-1.5 5.5-2q5-11 5-19-18-22-61-65-2-2-12-10.5T476 479h89q1-1 4-2 1-1 4-4.5t4-4.5q0-10-1-17-1-1-5-4.5t-6-4.5H446zM129 15q0-6-.5-22t-.5-25.5 1-22 4.5-20.5 9.5-12 38-4h490q34 0 41 4 6 4 9.5 12t4.5 20.5 1 22.5-.5 25.5T726 15H129zm242-43q10 0 36.5 1t45.5.5 33-2.5q3-5 3-6 2-4 0-7.5t-6-5.5h-88q-24 0-28 5-5 6 4 15z"/><glyph glyph-name="yijiuhuanxin" unicode="" d="M441 484h171V263H441v221zm0 24v-3h171v3q0 8-5.5 13t-12.5 5H459q-8 0-13-5t-5-13zm0-266v-4q0-7 5-12.5t13-5.5h135q7 0 12.5 5.5T612 238v4H441zm566.5 371.5Q991 708 912 786.5t-173 94T510.5 896t-229-15.5-172.5-94-93.5-173T0 384t15.5-229.5 93.5-173 172.5-94 229-15.5T739-112.5t173 94 95.5 173T1024 384t-16.5 229.5zM223 292q-11 40-11 82 0 106 64.5 189.5T441 674v34l95-42-95-41v27q-91-27-149.5-104T233 374q0-36 9-71zm371 256q16 0 27.5-11.5T633 508V238q0-16-11.5-27.5T594 199H459q-17 0-28 11.5T420 238v270q0 17 11 28.5t28 11.5h135zM522 63q-65 0-123 25.5T298 159l-27-16-12 104 83-62-25-15q85-85 205-85 121 0 206 86l19-11q-43-45-101.5-71T522 63zm245 145l12 104 22-13q11 37 11 75 0 99-60.5 176.5T597 653v22q103-25 169.5-109T833 374q0-44-12-86l30-18z"/><glyph glyph-name="lanmaofenleiyiyuangou" unicode="" d="M513 757q-105 0-194.5-52T177 564t-52-193.5T177 177 318.5 36.5 513-15t194.5 51.5T849 177t52 193.5T849 564 707.5 705 513 757zm0-742q-97 0-179.5 47.5T203 192t-48 178.5T203 549t130.5 130T513 727t179.5-48T823 549t48-178.5T823 192 692.5 62.5 513 15zm0 645q-120 0-205.5-85T222 370.5 307.5 166 513 81t205.5 85T804 370.5 718.5 575 513 660zm0-564q-114 0-195 80.5t-81 194 81 194T513 645t195-80.5 81-194-81-194T513 96zm28 175v237h-9l-66-29 4-10q12 7 20 7 14 0 14-19V271q0-25-26-25h-13v-12h113v12h-12q-25 0-25 25z"/><glyph glyph-name="buoumaotubiao46" unicode="" horiz-adv-x="1026" d="M280 434q-29 0-50 20L36 649q-7 7-7 16.5t7 16.5 16.5 7 16.5-7l194-195q7-7 16.5-7t16.5 7l110 110q6 7 6 16.5t-6 16.5L211 824q-6 7-6 16.5t6.5 16.5 16 7 16.5-7l195-194q20-21 20-50t-20-49L329 454q-20-20-49-20zm611.5-554Q836-120 796-80L513 203q-7 7-7 16.5t7 16.5 16.5 7 16.5-7L829-47q26-26 62.5-26t62 25.5 25.5 62T953 76L670 360q-7 7-7 16.5t6.5 16.5 16.5 7 17-7l283-284q39-39 39-94.5t-39-95-94.5-39.5zM367 157q-72 0-139.5 28T107 265Q27 346 6 458.5T31 675q4 9 13 12.5t18-.5 12.5-13-.5-18q-40-90-22-189t88-169q76-75 180-90.5T518 242q9 4 18 1.5t13.5-11 2-18T540 201q-82-44-173-44zm338 278q-2 0-4 1-10 1-15 9t-3 18q15 79-8 156t-80 134q-70 70-169 88t-189-22q-9-4-18-.5T206 831t-.5 18 12.5 13q104 46 216.5 25T628 786q65-66 91.5-154t8.5-178q-1-8-7.5-13.5T705 435z"/><glyph glyph-name="jianhao" unicode="" d="M288 429h448v-90H288v90z"/><glyph glyph-name="iconfontaisim" unicode="" d="M666 410H357q-12 0-21-8.5t-9-20.5V71q0-12 9-20.5t21-8.5h309q12 0 21 8.5t9 20.5v310q0 12-9 20.5t-21 8.5zm195 253L637 891q-5 5-13 5H231q-31 0-52.5-20.5T157 826V-58q0-29 21.5-49.5T231-128h561q31 0 52.5 20.5T866-58v709q0 7-5 12zM730 71q0-26-18.5-44.5T666 8H357q-27 0-45.5 18.5T293 71v310q0 27 18.5 45.5T357 445h309q27 0 45.5-18.5T730 381V71z"/><glyph glyph-name="sim" unicode="" d="M863-30H195v791h445l223-199V-30zM237 12h584v531L624 719H237V12zm62 420V81h471v351H299zm429-42V288H341v102h387zM341 123v123h387V123H341z"/><glyph glyph-name="jian" unicode="" d="M801 348H223q-13 0-22.5 9.5t-9.5 23 9.5 22.5 22.5 9h578q13 0 22.5-9t9.5-22.5-9.5-23T801 348z"/><glyph glyph-name="gengduo" unicode="" d="M557-8q-13 0-22.5 9.5T525 24t10 23l337 337-337 337q-10 10-10 23t9.5 22.5T557 776t23-9l360-360q9-10 9-23t-9-23L580 1q-10-9-23-9z"/><glyph glyph-name="tianjia" unicode="" d="M801 412H544v258q0 13-9.5 22.5T512 702t-22.5-9.5T480 670V412H223q-13 0-22.5-9t-9.5-22.5 9.5-23T223 348h257V91q0-13 9.5-22.5T512 59t22.5 9.5T544 91v257h257q13 0 22.5 9.5t9.5 23-9.5 22.5-22.5 9z"/><glyph glyph-name="shoucang" unicode="" d="M902 486q-2 7-9.5 13.5T877 507l-233 34-104 210q-3 8-11.5 13t-16.5 5-16.5-5-11.5-13L380 541l-233-34q-11-1-19-10.5t-8-20.5q0-14 10-23l168-164-40-231v-5q0-14 9-23t23-9q7 0 14 4l208 109L720 25q4-4 15-3.5t18 5.5q16 10 13 31l-40 231 168 164q10 9 10 23 0 5-2 10zM670 323q-10-9-10-23 0-2 1-5l31-184-165 87q-7 3-15 3t-15-3l-165-87 31 184q1 3 1 5 0 14-10 23L220 454l185 27q17 2 24 17l83 168 83-168q7-15 24-17l185-27z"/><glyph glyph-name="shang" unicode="" d="M904 204q0-13-9.5-22.5T872 172t-23 9L512 519 175 181q-10-9-23-9t-22.5 9.5T120 204t9 23l360 360q10 9 23 9t23-9l360-360q9-10 9-23z"/><glyph glyph-name="shuaxin" unicode="" d="M928 365q-13 0-22.5-9.5T896 333q0-78-30-149-25-60-85-120T661-21q-71-30-149-30T363-21Q303 4 243 64t-85 120q-30 71-30 149t30 149q25 60 85 120t120 85q71 30 149 30 30 0 59-5l-56-22q-9-3-15-11.5t-6-17.5q0-14 9.5-23t22.5-9q6 0 12 2l137 53q8 3 14 12t6 18q0 6-2 12l-53 137q-4 8-12.5 14t-17.5 6q-13 0-22.5-9.5T578 851q0-6 2-12l27-68q-47 10-95 10-91 0-174-35-70-30-139.5-99.5T99 507q-35-83-35-174t35-174q30-70 99.5-139.5T338-80q83-35 174-35t174 35q70 30 139.5 99.5T925 159q35 83 35 174 0 13-9.5 22.5T928 365z"/><glyph glyph-name="car" unicode="" horiz-adv-x="1142" d="M61 870q-3 9-11.5 15.5T31 892q-13 0-22-9t-9-21q0-4 2-8l211-746q10-30 37.5-50T309 38h650q31 0 58 20.5t35 50.5l86 320q15 52-15 90.5t-84 38.5l-489-4q-13 0-22-9t-9-21.5 9-21.5 22-9l489 3q24 0 35-14t5-37l-86-320q-3-10-13.5-18T959 99H309q-11 0-22 8t-15 18L61 870zm262.5-996q26.5 0 45 18.5t18.5 45-18.5 45-45 18.5-45-18.5-18.5-45 18.5-45 45-18.5zm.5 61q-2 0-2 2.5t2 2.5 2-2.5-2-2.5zm544.5-61q26.5 0 45 18.5t18.5 45-18.5 45-45 18.5-45-18.5-18.5-45 18.5-45 45-18.5zm-.5 61q-2 0-2 3l1 1 1 1q2 0 2-2 0-1-.5-2t-1.5-1z"/><glyph glyph-name="star" unicode="" horiz-adv-x="1071" d="M352 257q1 3 1 7 0 15-11 24L112 471l294 14q8 0 16 6t11 13l103 276 104-276q3-7 11-13t16-6l294-14-230-183q-11-9-11-24 0-4 1-7l78-284-246 162q-8 4-16.5 4t-16.5-4L274-27zM536 74l296-195q17-11 34 1t11 32l-94 341 277 221q16 13 9.5 32.5T1042 527l-353 17-125 331q-7 19-27.5 19T509 875L384 544 30 527q-20-1-26.5-20.5T13 474l277-221-94-341q-6-20 11-32t34-1z"/><glyph glyph-name="xuangoushouji" unicode="" d="M393 235h-73v405h265v-9h21v69q0 21-17 21H316q-17 0-17-21V162q0-21 17-21h77v94zm332 358H452q-8 0-12.5-6.5T435 572V34q0-21 17-21h273q9 0 13 6.5t4 14.5v538q0 6-5.5 13.5T725 593zM619 38h-64q-10 0-16 6t-6 15.5 6 15.5 16 6h64q9 0 15-6t6-15.5-6-15.5-15-6zm102 64H457v410h264V102z"/><glyph glyph-name="yijiuhuanxin1" unicode="" d="M441 484h171V263H441v221zm0 24v-3h171v3q0 8-5.5 13t-12.5 5H459q-8 0-13-5t-5-13zm0-266v-4q0-7 5-12.5t13-5.5h135q7 0 12.5 5.5T612 238v4H441zm566.5 371.5Q991 708 912 786.5t-173 94T510.5 896t-229-15.5-172.5-94-93.5-173T0 384t15.5-229.5 93.5-173 172.5-94 229-15.5T739-112.5t173 94 95.5 173T1024 384t-16.5 229.5zM223 292q-11 40-11 82 0 106 64.5 189.5T441 674v34l95-42-95-41v27q-91-27-149.5-104T233 374q0-36 9-71zm371 256q16 0 27.5-11.5T633 508V238q0-16-11.5-27.5T594 199H459q-17 0-28 11.5T420 238v270q0 17 11 28.5t28 11.5h135zM522 63q-65 0-123 25.5T298 159l-27-16-12 104 83-62-25-15q85-85 205-85 121 0 206 86l19-11q-43-45-101.5-71T522 63zm245 145l12 104 22-13q11 37 11 75 0 99-60.5 176.5T597 653v22q103-25 169.5-109T833 374q0-44-12-86l30-18z"/><glyph glyph-name="qitiantuihuan" unicode="" d="M394 205h57l138 289v44H384v-52h154v6zm497 161l-64 74q-15 15-31 3-12-10-23-18.5T754.5 410t-14-11-10.5-8.5-7.5-6-5.5-4-3-3-1.5-3-.5-2.5v-3q0-3 1-5.5t2-3.5 3.5-1.5 4-.5h9.5q3 0 7-1t6.5-1 4.5 2q1 2 12.5 9.5T783 384q-3-125-94.5-215T471 79q-129 0-220.5 91.5T159 392q0 128 91.5 220T471 704q82 0 152-39.5T737 556q7-11 18-11 8 0 10 3 8 4 10 13t-2 15q-50 79-130 124t-172 45q-93 0-174-47.5T168 568t-48-179 48.5-178.5 130-128T476 36q93 0 173 45t128.5 123T829 374l29-34q7-7 15-7t13 5q9 4 10 13.5t-5 14.5z"/><glyph glyph-name="shoujiqia" unicode="" d="M829-64H195q-8 0-13.5 5.5T176-45v858q0 8 5.5 13.5T195 832h453q8 0 14-6l181-206q5-5 5-12V-45q0-8-5.5-13.5T829-64zm14 684L662 826q-6 6-14 6H195q-8 0-13.5-5t-5.5-13h436q8 0 14-6l181-206q5-5 5-12V-64h17q8 0 13.5 5.5T848-45v653q0 7-5 12zM273 828h30V686h-30v142zm112 0h30V686h-30v142zm112 0h30V686h-30v142zm112 0h30V686h-30v142zM717-64H307q-8 0-13.5 5.5T288-45v298q0 42 23 68t60 26h261q39 0 71.5-27.5T736 253V-45q0-8-5.5-13.5T717-64zm-85 411H371q-30 0-53-20 9 2 17 2h261q39 0 71.5-27.5T700 235V-64h17q8 0 13.5 5.5T736-45v298q0 39-32.5 66.5T632 347z"/><glyph glyph-name="yijiuhuanxin2" unicode="" d="M441 484h171V263H441v221zm0 24v-3h171v3q0 8-5.5 13t-12.5 5H459q-8 0-13-5t-5-13zm0-266v-4q0-7 5-12.5t13-5.5h135q7 0 12.5 5.5T612 238v4H441zm566.5 371.5Q991 708 912 786.5t-173 94T510.5 896t-229-15.5-172.5-94-93.5-173T0 384t15.5-229.5 93.5-173 172.5-94 229-15.5T739-112.5t173 94 95.5 173T1024 384t-16.5 229.5zM223 292q-11 40-11 82 0 106 64.5 189.5T441 674v34l95-42-95-41v27q-91-27-149.5-104T233 374q0-36 9-71zm371 256q16 0 27.5-11.5T633 508V238q0-16-11.5-27.5T594 199H459q-17 0-28 11.5T420 238v270q0 17 11 28.5t28 11.5h135zM522 63q-65 0-123 25.5T298 159l-27-16-12 104 83-62-25-15q85-85 205-85 121 0 206 86l19-11q-43-45-101.5-71T522 63zm245 145l12 104 22-13q11 37 11 75 0 99-60.5 176.5T597 653v22q103-25 169.5-109T833 374q0-44-12-86l30-18z"/><glyph glyph-name="add" unicode="" d="M512 64q13 0 22.5 9.5T544 96v256h256q13 0 22.5 9.5T832 384t-9.5 22.5T800 416H544v256q0 13-9.5 22.5T512 704t-22.5-9.5T480 672V416H224q-13 0-22.5-9.5T192 384t9.5-22.5T224 352h256V96q0-13 9.5-22.5T512 64z"/><glyph glyph-name="close" unicode="" d="M544 397l285 284q9 10 9 23t-9.5 22.5T806 736t-22-9L499 442 215 727q-10 9-23 9t-22.5-9.5T160 704t9-23l285-284-285-285q-9-9-9-22t9.5-22.5T192 58t23 9l284 285L784 67q9-9 22.5-9t22.5 9 9 22.5-9 22.5z"/><glyph glyph-name="libao" unicode="" d="M897 371H127q-21 0-35 17t-14 41v153q0 24 14 41t35 17h770q20 0 34.5-17t14.5-41V429q0-24-14.5-41T897 371zM127 602q-7 0-12-6t-5-14V429q0-8 5-13.5t12-5.5h770q7 0 12 5.5t5 13.5v153q0 8-5 14t-12 6H127zm721-730H176q-21 0-35 17t-14 41v480h770V-70q0-24-14-41t-35-17zM159 371V-70q0-8 5-14t12-6h672q7 0 12 6t5 14v441H159zm353 251q-8 0-13 7-3 6-3 12 0 5 1 9 24 55 60 117 74 122 133 128 6 1 12 1 30 0 52-16 21-16 28-43 8-29-2-59t-35-52-85-48.5-91.5-37.5-52.5-17q-2-1-4-1zm190 236q-5 0-9-1-44-5-109-112-19-32-39-73 140 49 181 85 16 14 23 32.5t2 35.5q-9 33-49 33zM512 622q-2 0-4 1-21 6-52.5 17T364 677.5 279 726t-35 52-2 59q7 26 28 43 22 16 52 16 6 0 12-1 59-6 133-128 31-52 60-117 1-4 1-9 0-6-3-12-5-7-13-7zM322 858q-40 0-49-33-5-17 2-35.5t23-32.5q41-36 181-85-18 37-39 73-65 107-109 112-4 1-9 1zm190-986q-7 0-11.5 5.5T496-109v734q0 8 4.5 13.5T512 644t11.5-5.5T528 625v-734q0-8-4.5-13.5T512-128z"/></font>
</defs>
</svg>
